name new_emg_signals
nRows=76
nColumns=7
 
endheader
time	RGLTMED	RRF	RADDLONG	RBF	RTA	RGM
5.16999999999989	0.6237326651277995	0.8328512158500821	0.5348767803002659	0.5804912553644624	0.9999077145349348	0.3311912474470327
5.179999999999888	0.6219449682049547	0.8299032182768303	0.5319646701767261	0.5806636460789939	1.0	0.3293372535984547
5.189999999999886	0.6201861911753725	0.8268141246153917	0.5291015135500319	0.5804965152648761	0.9996173307208794	0.3273588602572758
5.199999999999887	0.6184557959702894	0.8235882579538168	0.5262884947677733	0.579989833831369	0.9987618458121122	0.3252590559675456
5.209999999999885	0.6167532665592312	0.8202301150215769	0.523526770365844	0.5791441592097208	0.9974365011297402	0.3230410290975204
5.219999999999887	0.6150781120056764	0.8167443596904341	0.5208174682080874	0.5779606241710494	0.9956450589382247	0.3207081593371279
5.229999999999885	0.6134298692923358	0.8131358162126687	0.5181616865690054	0.5764409245288309	0.9933920757246858	0.3182640088751628
5.23999999999989	0.6118081059080509	0.8094094622089993	0.5155604931687512	0.5745873058034996	0.99068288822429	0.3157123132878823
5.2499999999998845	0.6102124221904426	0.8055704214173864	0.5130149241694703	0.5724025489255454	0.9875235977245428	0.313056972170472
5.259999999999886	0.6086424534197502	0.8016239562125294	0.5105259831417414	0.5698899550522505	0.9839210527181418	0.3103020395425077
5.269999999999884	0.6070978716608056	0.797575459903976	0.5080946400099055	0.5670533295717857	0.9798828299762888	0.3074517140580114
5.279999999999886	0.6055783873521869	0.793430448819623	0.5057218299848735	0.5638969653667623	0.9754172141180906	0.3045103290501101
5.289999999999884	0.6040837506430368	0.7891945541807347	0.5034084524929094	0.5604256254075226	0.9705331757560866	0.3014823424394909
5.299999999999885	0.6026137524804774	0.7848735137752834	0.5011553701085866	0.5566445247436005	0.9652403483017972	0.2983723265350101
5.309999999999883	0.601168225451309	0.7804731634375616	0.4989634074998899	0.5525593119598023	0.9595490035183004	0.2951849577537787
5.319999999999885	0.5997470443841615	0.7759994283436809	0.4968333503932387	0.5481760501613422	0.9534700259096008	0.2919250062869811
5.329999999999879	0.5983501267189217	0.7714583141338929	0.4947659445658526	0.5435011975503578	0.9470148860387704	0.2885973257366348
5.339999999999884	0.5969774326517251	0.7668558978736869	0.4927618948720534	0.5385415876539981	0.9401956128680228	0.2852068427474387
5.349999999999882	0.5956289650636409	0.7621983188665141	0.490821864309227	0.5333044092621577	0.93302476521405	0.2817585466569015
5.359999999999884	0.5943047692416339	0.7574917693321295	0.4889464731280754	0.5277971861308144	0.9255154024116314	0.2782574791859714
5.369999999999882	0.5930049324005027	0.7527424849660358	0.487136297990818	0.522027756504854	0.9176810542778546	0.2747087241914142
5.3799999999998835	0.5917295830152607	0.7479567353963984	0.4853918711804514	0.516004252512186	0.9095356904680848	0.2711173975002514
5.3899999999998816	0.5904788899749132	0.7431408145546774	0.4837136798635269	0.509735079478857	0.9010936893130792	0.2674886368456069
5.39999999999988	0.5892530615687857	0.7383010309751831	0.4821021654088479	0.5032288952127718	0.8923698062247031	0.2638275919224145
5.409999999999881	0.588052344317144	0.7334436980376361	0.4805577227642185	0.4964945893015572	0.8833791417556679	0.2601394145805976
5.419999999999879	0.5868770216567321	0.7285751241655206	0.4790806998931837	0.4895412624680776	0.8741371093964796	0.2564292491724673
5.429999999999881	0.5857274124919714	0.7237016029930219	0.4776713972731167	0.4823782060251246	0.8646594031902135	0.2527022230703168
5.439999999999882	0.5846038696221033	0.7188294035143364	0.4763300674557778	0.4750148814688552	0.8549619652429916	0.2489634373693796
5.44999999999988	0.5835067780546345	0.713964760231948	0.4750569146905252	0.4674609002486731	0.8450609532051977	0.2452179577905214
5.459999999999882	0.5824365532163083	0.7091138633233165	0.4738520946103717	0.4597260037494629	0.8349727077955559	0.2414708057961967
5.46999999999988	0.5813936390734646	0.7042828488476177	0.4727157139802933	0.4518200435203753	0.8247137204372341	0.2377269499323671
5.479999999999881	0.5803785061752392	0.6994777890153474	0.4716478305074509	0.4437529617826971	0.8143006010722045	0.2339912974082165
5.489999999999879	0.57939164963284	0.6947046825437854	0.4706484527126495	0.4355347722476745	0.8037500462172223	0.2302686859246926
5.499999999999881	0.5784335870487366	0.689969445121619	0.4697175398634469	0.4271755412734667	0.7930788073220068	0.2265638757622167
5.509999999999879	0.5775048564075766	0.685277900006239	0.4688550019694397	0.41868536938871	0.7823036594874306	0.2228815421372786
5.519999999999881	0.5766060139404219	0.6806357687771297	0.4680606998410534	0.4100743732084588	0.7714413705988176	0.2192262678370278
5.529999999999882	0.5757376319719277	0.676048662268611	0.4673344452123954	0.4013526677665688	0.7605086709267629	0.215602536140336
5.53999999999988	0.5749002967595901	0.6715220717043124	0.4666760009282663	0.392530349286896	0.7495222232452695	0.2120147240331171
5.549999999999882	0.5740946063326814	0.6670613600549671	0.4660850811946588	0.3836174784140217	0.738498593514372	0.2084670957249757
5.55999999999988	0.5733211683377705	0.6626717536400457	0.4655613518915107	0.3746240639225799	0.7274542221718335	0.2049637964735526
5.569999999999881	0.5725805978966645	0.6583583339924582	0.465104430946317	0.3655600469226671	0.7164053960760358	0.2015088467222734
5.579999999999879	0.5718735154817352	0.6541260300042503	0.4647138887672398	0.3564352855772615	0.705368221139743	0.198106136556507
5.589999999999881	0.5712005448124343	0.6499796103697091	0.4643892487344317	0.3472595403460774	0.6943585956920175	0.1947594204824687
5.599999999999882	0.5705623107757579	0.6459236763407616	0.464129987748987	0.3380424597688349	0.6833921846032096	0.1914723125324385
5.60999999999988	0.5699594373721234	0.6419626548077726	0.4639355368387585	0.3287935667995476	0.6724843942056995	0.1882482816991752
5.619999999999882	0.5693925456879043	0.6381007917171222	0.4638052818209566	0.3195222457021046	0.661650348040916	0.1850906477016553
5.62999999999988	0.5688622518950595	0.6343421458356567	0.4637385640202064	0.310237729516132	0.6509048634610385	0.1820025770836749
5.6399999999998816	0.5683691652785272	0.630690582871399	0.4637346810405596	0.300949088100843	0.6402624291117053	0.1789870796463333
5.649999999999876	0.5679138862921044	0.6271497699604036	0.4637928875891619	0.2916652167633219	0.6297371833200168	0.1760470052149838
5.659999999999881	0.5674970046429069	0.6237231705305515	0.4639123963491078	0.2823948254764116	0.6193428934101856	0.1731850407408506
5.669999999999876	0.5671190974046514	0.6204140395542168	0.464092378899238	0.2731464286901505	0.6090929359672534	0.1704037077370082
5.679999999999881	0.5667807271597317	0.6172254192017805	0.4643319666785714	0.2639283357394827	0.599000278067428	0.1677053600479301
5.689999999999875	0.5664824401703958	0.6141601349075343	0.464630251993175	0.2547486418498015	0.5890774594917542	0.1650921819512283
5.69999999999988	0.5662247645789532	0.6112207918583824	0.4649862890630932	0.2456152197407506	0.5793365759380674	0.1625661865898484
5.709999999999878	0.5660082086374075	0.6084097719146405	0.4653990951067546	0.2365357118276375	0.5697892632444048	0.160129214732639
5.71999999999988	0.5658332589657273	0.6057292309711411	0.4658676514594105	0.227517523018783	0.5604466826352977	0.1577829338610274
5.729999999999878	0.5657003788380862	0.6031810967655304	0.4663909047220398	0.2185678141061703	0.5513195070006587	0.1555288375793357
5.739999999999876	0.5656100064948519	0.6007670671390964	0.4669677679363329	0.2096934957458688	0.5424179082153345	0.153368245346026
5.749999999999877	0.565562553478388	0.5984886087538105	0.467597121781278	0.2009012230238521	0.5337515455057903	0.1513023025229662
5.759999999999875	0.5655584029897786	0.5963469562678564	0.4682778157867795	0.1921973906020144	0.5253295548688318	0.1493319807395631
5.769999999999877	0.5655979082641559	0.5943431119709767	0.4690086695594654	0.1835881284383734	0.5171605395457515	0.1474580785683329
5.779999999999875	0.565681390962237	0.5924778458805328	0.4697884740155664	0.1750792980746477	0.5092525615537775	0.1456812225080272
5.789999999999873	0.5658091395764647	0.5907516962991566	0.4706159926150127	0.1666764894836103	0.5016131342751995	0.144001868270013
5.799999999999878	0.5659814078511485	0.5891649708343626	0.4714899625910875	0.1583850184678854	0.4942492161029815	0.1424203023631077
5.809999999999873	0.5661984132171681	0.5877177478797925	0.4724090961694553	0.1502099246011385	0.4871672051401475	0.140936643971698
5.819999999999878	0.5664603352431178	0.5864098785565803	0.4733720817715949	0.1421559697019444	0.4803729349487203	0.1395508471216065
5.829999999999872	0.5667673141067805	0.5852409891121814	0.4743775851983527	0.1342276368299781	0.4738716713425638	0.138262703127838
5.839999999999877	0.5671194490914105	0.5842104837724559	0.4754242507903568	0.1264291297935374	0.4676681102170711	0.1370718433179781
5.849999999999872	0.567516797112001	0.583317548041178	0.4765107025639056	0.1187643731568301	0.4617663764072801	0.1359777420246382
5.859999999999877	0.5679593712762383	0.5825611524392235	0.4776355453222745	0.1112370127348784	0.4561700235646683	0.1349797198399147
5.869999999999871	0.5684471394848832	0.5819400566738139	0.4787973657448626	0.1038504165633759	0.4508820350415645	0.1340769471244167
5.879999999999873	0.568980023076114	0.5814528142263427	0.4799947334577331	0.09660767633033	0.4459048257707479	0.1332684477629853
5.889999999999871	0.569557895517919	0.5810977773452914	0.481226202090278	0.0895116092558635	0.441240245126476	0.1325531031588024
5.8999999999998725	0.570180581152607	0.5808731024287903	0.4824903103230343	0.0825647604061083	0.4368895807518747	0.131929656457193
5.9099999999998705	0.5708478539973967	0.5807767557793844	0.4837855829318827	0.0757694054267341	0.4328535633363797	0.1313967169899978
5.919999999999872	0.571559436604942	0.5808065197114132	0.4851105318339764	0.0691275536812931	0.4291323723256551	0.130952764931034
